<?xml version="1.0" encoding="iso-8859-1"?>
<!-- Generator: Adobe Illustrator 21.0.0, SVG Export Plug-In . SVG Version: 6.00 Build 0)  -->
<svg version="1.1" id="Layer_1" xmlns="http://www.w3.org/2000/svg" xmlns:xlink="http://www.w3.org/1999/xlink" x="0px" y="0px"
	 viewBox="0 0 221.7 78.8" style="enable-background:new 0 0 221.7 78.8;" xml:space="preserve">
<path style="fill:#FFFFFF;" d="M31.8,11.3h155.5v55.1H31.8V11.3z"/>
<g>
	<path style="fill:#53241B;" d="M137.8,34.4c-5,0-5.3,4.1-5.3,8.2s0.3,8.3,5.3,8.3s5.2-4.4,5.2-8.3C143,38.8,142.7,34.4,137.8,34.4z
		 M160.5,47.9c0,1.8,1.4,3.3,5,3.3c4.4,0,6-0.5,6-4.6v-1.9h-6.4C162,44.7,160.5,45.9,160.5,47.9z"/>
	<path style="fill:#53241B;" d="M196.7,33.5C192.6,19.6,179.2,12,167.9,12H15.8c2.8,10,9.1,33,9.1,33.1
		c3.9,13.4,16.8,21.4,28.3,21.4h152.6C204.8,62.7,196.7,33.7,196.7,33.5z M60.9,23.7H57c-1.7,0-2.3,0.6-2.3,2.2v3.5h6.2v4.1h-6.2
		v22.4h-5.3V33.5h-4.9l-1.2-4.1h6.1v-3.5c0-5,3.1-7.2,7.2-7.2h4.3C60.9,18.7,60.9,23.7,60.9,23.7z M88.7,55.9h-5.3v-2.8h-0.1
		c-1.7,2.1-4.1,3.1-6.8,3.1c-4.2,0-8.9-3.2-8.9-9.2V29.4h5.3v15.8c0,3.6,2.2,5.7,5.3,5.7c3,0,5.2-2.1,5.2-5.7V29.4h5.3V55.9z
		 M119.3,55.9H114V40.1c0-3.6-2.2-5.7-5.2-5.7s-5.3,2.1-5.3,5.7v15.8h-5.3V29.4h5.3v2.8h0.1c1.7-2.1,4.1-3.1,6.9-3.1
		c4.1,0,8.8,3.2,8.8,9.2C119.3,38.3,119.3,55.9,119.3,55.9z M148.3,55.9H143v-2.8c-1.7,1.8-4.1,3.1-6.8,3.1c-3.2,0-5.6-1.5-7.1-3.4
		s-1.9-3.6-1.9-10.1s0.4-8.2,1.9-10.1c1.5-2,3.9-3.5,7.1-3.5c2.7,0,4.9,1.3,6.8,3.1V18.7h5.3L148.3,55.9L148.3,55.9z M176.9,55.9
		h-5.3v-2.4h-0.1c-1.1,1.8-2.9,2.7-6.5,2.7c-5.9,0-9.4-3.5-9.4-8.1c0-4.2,2.9-7.8,8.6-7.8h7.4v-2.8c0-2.5-1.6-3.4-5.4-3.4
		c-2.8,0-4.1,0.5-5,2l-4.2-3.2c2-2.8,5-3.9,8.9-3.9c6.5,0,11,2.2,11,8.7C176.9,37.7,176.9,55.9,176.9,55.9z"/>
</g>
<path style="fill:#60C5F8;" d="M52.9,78.5l0.1,0.3h168.8l-0.1-0.3l-13.4-48.3C202.7,11.2,184.6,0,167.9,0H0l13.4,48.3v0.1
	C18.9,67.6,37.1,78.3,52.9,78.5z M167.9,12c11.3,0,24.8,7.6,28.8,21.5c0,0.1,8.1,29.2,9.1,33H53.2c-11.5,0-24.4-8-28.3-21.4
	c0-0.1-6.4-23-9.1-33.1H167.9L167.9,12z"/>
</svg>
